# xmcd
#
# Track frame offsets:
#	187
#	39177
#	56655
#	78557
#	95827
#	127130
#	143402
#	161015
#
# Disc length: 2635 seconds
#
# Revision: 1
# Processed by: cddbd v1.5.2PL0 Copyright (c) Steve Scherf et al.
# Submitted via: audiograbber 1.83.01
#
DISCID=680a4908
DTITLE=J Michael Kearsey - Silverthaw
DYEAR=1990
DGENRE=Ethnic
TTITLE0=Voyage Northwest
TTITLE1=Listen to the River
TTITLE2=Touch
TTITLE3=The Eyes of Kabul
TTITLE4=Silverthaw
TTITLE5=Sparrow's Song
TTITLE6=Now that you're gone
TTITLE7=The Rain
EXTD=
EXTT0=
EXTT1=
EXTT2=
EXTT3=
EXTT4=
EXTT5=
EXTT6=
EXTT7=
PLAYORDER=
